<?xml version="1.0" encoding="utf-8"?>
<!-- Generator: Adobe Illustrator 19.0.0, SVG Export Plug-In . SVG Version: 6.00 Build 0)  -->
<svg version="1.1" id="Layer_1" xmlns="http://www.w3.org/2000/svg" xmlns:xlink="http://www.w3.org/1999/xlink" x="0px" y="0px"
	 viewBox="0 0 250 250" style="enable-background:new 0 0 250 250;" xml:space="preserve">
<style type="text/css">
	.st0{fill:#B3B3B3;}
	.st1{fill:#29ABE2;}
	.st2{fill:#0071BC;}
	.st3{fill:#22B573;}
</style>
<g>
	<g>
		<rect id="XMLID_15_" x="23.4" y="91.9" class="st0" width="188.7" height="65.6"/>
	</g>
	<g>
		<path d="M212.2,222.2H23.4c-1.6,0-2.9-1.3-2.9-2.9V30.6c0-1.6,1.3-2.9,2.9-2.9h188.7c1.6,0,2.9,1.3,2.9,2.9v188.7
			C215.1,221,213.8,222.2,212.2,222.2z M26.3,216.5h183v-183h-183C26.3,33.5,26.3,216.5,26.3,216.5z"/>
	</g>
	<g>
		<rect id="XMLID_12_" x="54.1" y="30.6" class="st1" width="177.2" height="61.3"/>
		<path d="M231.3,94.8H54.1c-1.6,0-2.9-1.3-2.9-2.9V30.6c0-1.6,1.3-2.9,2.9-2.9h177.2c1.6,0,2.9,1.3,2.9,2.9v61.3
			C234.2,93.5,232.9,94.8,231.3,94.8z M57,89.1h171.5V33.5H57V89.1z"/>
	</g>
	<g>
		<rect id="XMLID_9_" x="18.7" y="30.6" class="st2" width="35.4" height="61.3"/>
		<path d="M54.1,94.8H18.7c-1.6,0-2.9-1.3-2.9-2.9V30.6c0-1.6,1.3-2.9,2.9-2.9h35.4c1.6,0,2.9,1.3,2.9,2.9v61.3
			C57,93.5,55.7,94.8,54.1,94.8z M21.5,89.1h29.7V33.5H21.5V89.1z"/>
	</g>
	<g>
		<polygon id="XMLID_6_" class="st3" points="159,140 135,140 135,118 100,118 100,140 76,140 76,175 100,175 100,199 135,199 
			135,175 159,175 		"/>
		<path d="M135.5,202h-35.4c-1.6,0-3.1-2.1-3.1-3.7V179H77.1c-1.6,0-2.1-2.1-2.1-3.7v-35.4c0-1.6,0.5-1.8,2.1-1.8H97V117
			c0-1.6,1.5-1.9,3.1-1.9h35.4c1.6,0,2.5,0.3,2.5,1.9v21h20.5c1.6,0,3.5,0.3,3.5,1.8v35.4c0,1.6-1.9,3.7-3.5,3.7H138v19.3
			C138,199.9,137.1,202,135.5,202z M103,195h30v-19.7c0-1.6,1-1.3,2.5-1.3H155v-31h-19.5c-1.6,0-2.5-1.6-2.5-3.2V120h-30v19.8
			c0,1.6-1.3,3.2-2.9,3.2H80v31h20.1c1.6,0,2.9-0.3,2.9,1.3V195z"/>
	</g>
	<g>
		<circle id="XMLID_3_" class="st3" cx="199.4" cy="61.3" r="13.1"/>
		<path d="M199.4,77.3c-8.8,0-16-7.2-16-16s7.2-16,16-16s16,7.2,16,16S208.2,77.3,199.4,77.3z M199.4,51.1
			c-5.6,0-10.2,4.6-10.2,10.2s4.6,10.2,10.2,10.2c5.6,0,10.2-4.6,10.2-10.2S205,51.1,199.4,51.1z"/>
	</g>
</g>
</svg>
