<?xml version="1.0" encoding="utf-8"?>
<!-- Generator: Adobe Illustrator 19.0.0, SVG Export Plug-In . SVG Version: 6.00 Build 0)  -->
<svg version="1.1" id="Layer_1" xmlns="http://www.w3.org/2000/svg" xmlns:xlink="http://www.w3.org/1999/xlink" x="0px" y="0px"
	 viewBox="0 0 250 89" style="enable-background:new 0 0 250 89;" xml:space="preserve">
<style type="text/css">
	.st0{fill:#22B573;}
</style>
<g>
	<path id="XMLID_7_" d="M234.8,75.8h-55.4c-2.3,0-4.1-1.8-4.1-4.1V16.3c0-2.3,1.8-4.1,4.1-4.1h55.4c2.3,0,4.1,1.8,4.1,4.1v55.4
		C238.9,74,237.1,75.8,234.8,75.8z"/>
	<g>
		<path d="M25.3,38.2c2.6-3.9,5.7-5.8,9.3-5.8c5.6,0,9.8,2.4,12.5,7.2c0.6-0.8,1.3-1.7,2.2-2.6c0.9-0.9,2.2-1.9,4.1-3
			c1.9-1.1,3.8-1.6,5.8-1.6c4.4,0,8.1,1.7,11,5.1s4.4,9,4.4,16.8v14.4c0,1.3,0,2.2-0.1,2.8c-0.1,0.6-0.3,1.4-0.8,2.2
			c-0.7,1.5-2.8,2.2-6.3,2.2c-3.5,0-5.6-0.8-6.3-2.3c-0.4-0.8-0.6-1.6-0.7-2.2c-0.1-0.6-0.1-1.6-0.1-2.8V54.1c0-4.8-1.7-7.2-5.1-7.2
			c-1.9,0-3.2,0.6-3.9,1.9c-0.7,1.3-1,3-1,5.4v14.4c0,1.3,0,2.3-0.1,2.9c-0.1,0.6-0.3,1.3-0.8,2.1c-0.8,1.5-2.9,2.2-6.4,2.2
			c-3.5,0-5.6-0.8-6.3-2.3c-0.4-0.8-0.6-1.6-0.7-2.2c-0.1-0.6-0.1-1.6-0.1-2.8V54.1c0-4.8-1.7-7.2-5.1-7.2c-3.3,0-4.9,2.4-4.9,7.2
			v14.6c0,1.3,0,2.2-0.1,2.8c-0.1,0.6-0.3,1.4-0.8,2.2c-0.8,1.4-3,2.1-6.4,2.1c-3.5,0-5.6-0.7-6.3-2.2c-0.4-0.8-0.6-1.5-0.7-2.1
			c-0.1-0.6-0.1-1.6-0.1-2.9v-29c0-1.3,0-2.2,0.1-2.8c0.1-0.6,0.3-1.3,0.8-2.1c0.8-1.5,2.8-2.2,5.8-2.2c3.1,0,5.1,0.5,6,1.5
			C24.8,34.9,25.3,36.3,25.3,38.2z"/>
		<path d="M123,48.9c0,3.4-0.8,5.9-2.5,7.5c-1.7,1.6-3.5,2.4-5.6,2.4H95.4c0,1.5,0.9,2.8,2.7,3.9c1.8,1,3.6,1.6,5.4,1.6
			c3.2,0,5.7-0.3,7.5-1l0.9-0.3c1.3-0.6,2.4-0.9,3.3-0.9c1.8,0,3.3,1.2,4.5,3.7c0.7,1.5,1.1,2.7,1.1,3.8c0,4.9-5.8,7.3-17.5,7.3
			c-4.1,0-7.7-0.7-10.8-2.1c-3.2-1.4-5.6-3.3-7.4-5.6c-3.5-4.4-5.2-9.4-5.2-14.9c0-6.9,2.2-12.4,6.7-16.6c4.5-4.1,10.1-6.2,16.8-6.2
			c7.6,0,13.2,2.7,16.8,8.1C122.1,42.4,123,45.5,123,48.9z M105.6,51.3c2.1,0,3.1-0.9,3.1-2.6c0-1.3-0.5-2.3-1.4-3
			c-1-0.8-2.3-1.2-4.1-1.2c-1.8,0-3.6,0.7-5.3,2.2c-1.8,1.5-2.6,3-2.6,4.7H105.6z"/>
		<path d="M157.5,14.3c0.4-0.8,1.1-1.4,2.2-1.7c1-0.3,2.4-0.5,4.2-0.5c1.7,0,3.1,0.2,4.2,0.5c1,0.3,1.8,0.9,2.2,1.7
			c0.4,0.8,0.7,1.6,0.7,2.2c0.1,0.6,0.1,1.6,0.1,2.8v49.2c0,1.3,0,2.2-0.1,2.8c-0.1,0.6-0.3,1.3-0.8,2.1c-0.8,1.5-3.1,2.2-7,2.2
			c-3.8,0-5.9-1.3-6.4-4c-2.3,2.6-5.5,4-9.6,4c-4.9,0-9.4-2.2-13.5-6.5c-4.1-4.3-6.1-9.3-6.1-15.1c0-5.7,2-10.8,6.1-15.1
			c4.1-4.3,8.6-6.5,13.5-6.5c4.1,0,7.2,1.4,9.5,4.1V19.3c0-1.3,0-2.2,0.1-2.8C156.8,15.8,157.1,15.1,157.5,14.3z M144.1,59.1
			c1.4,1.5,3.2,2.2,5.2,2.2c2,0,3.7-0.7,5.1-2.2c1.3-1.5,2-3.1,2-4.9c0-1.8-0.6-3.4-1.9-5c-1.3-1.5-3-2.3-5.2-2.3
			c-2.2,0-4,0.8-5.3,2.3c-1.3,1.5-2,3.2-2,5C142,55.9,142.7,57.6,144.1,59.1z"/>
	</g>
	<path class="st0" d="M200.2,55.8h19.2c1,0,1.7,0,2.2,0.1c0.5,0.1,1,0.3,1.7,0.6c1.1,0.6,1.7,2.2,1.7,4.9c0,2.9-0.8,4.6-2.3,5.1
		c-0.7,0.2-1.8,0.4-3.2,0.4h-24.7c-2.9,0-4.6-0.8-5.1-2.4c-0.2-0.7-0.4-1.7-0.4-3.2V26.6c0-2.1,0.4-3.6,1.2-4.3
		c0.8-0.8,2.3-1.2,4.5-1.2h24.6c1,0,1.7,0,2.2,0.1c0.5,0.1,1,0.3,1.7,0.6c1.1,0.6,1.7,2.2,1.7,4.9c0,2.9-0.8,4.6-2.3,5.1
		c-0.7,0.2-1.8,0.4-3.2,0.4h-19.2v6.3h12.4c1,0,1.7,0,2.2,0.1c0.5,0.1,1,0.3,1.7,0.6c1.1,0.6,1.7,2.2,1.7,4.9c0,2.9-0.8,4.6-2.4,5.1
		c-0.7,0.2-1.8,0.4-3.2,0.4h-12.2V55.8z"/>
</g>
</svg>
